# xmcd
#
# Track frame offsets: 
#        150
#        18827
#        37290
#        56370
#        74486
#        88255
#        110352
#        128844
#        145911
#        166892
#        185261
#        206614
#        224518
#        241660
#        265922
#        284172
#
# Disc length: 4056 seconds
#
# Revision: 0
# Processed by: cddbd v1.5.2PL0 Copyright (c) Steve Scherf et al.
# Submitted via: ExactAudioCopy v0.95b2
#
DISCID=f40fd610
DTITLE=Johnny Adams - Chasing Rainbows Disc 1
DYEAR=2007
DGENRE=Blues
TTITLE0=After All the Good is Gone
TTITLE1=Somewhere
TTITLE2=Selfish
TTITLE3=She's Only a Baby Herself
TTITLE4=Chasing Rainbows
TTITLE5=I Can't Believe She Gives It All To Me
TTITLE6=The Image of Me
TTITLE7=Stay With Me And Stay In Love
TTITLE8=One Fine Day
TTITLE9=It's Been So Long
TTITLE10=Spanish Harlem
TTITLE11=It's Got To Be Something
TTITLE12=It Only Rains On Me
TTITLE13=Night People
TTITLE14=Memories
TTITLE15=Put If Off Till Tomorrow
EXTD=
EXTT0=
EXTT1=
EXTT2=
EXTT3=
EXTT4=
EXTT5=
EXTT6=
EXTT7=
EXTT8=
EXTT9=
EXTT10=
EXTT11=
EXTT12=
EXTT13=
EXTT14=
EXTT15=
PLAYORDER=
